<mxfile host="app.diagrams.net" modified="2021-12-19T02:55:48.438Z" agent="5.0 (Windows NT 10.0; Win64; x64) AppleWebKit/537.36 (KHTML, like Gecko) Chrome/94.0.4606.71 Safari/537.36" etag="fc4uOJrl5XXna9p8INO9" version="16.0.0" type="github">
  <diagram id="USGF_vLlZh23-UFpanus" name="第 1 页">
    <mxGraphModel dx="1243" dy="1938" grid="1" gridSize="10" guides="1" tooltips="1" connect="1" arrows="1" fold="1" page="1" pageScale="1" pageWidth="827" pageHeight="1169" math="0" shadow="0">
      <root>
        <mxCell id="0" />
        <mxCell id="1" parent="0" />
        <mxCell id="hH72TNsfT_wBY8C2byF3-1" value="&lt;span style=&quot;font-size: 16px;&quot;&gt;如何将任务卸载在边缘服务器&lt;/span&gt;" style="rounded=1;whiteSpace=wrap;html=1;fillColor=#dae8fc;strokeColor=#6c8ebf;fontSize=16;" vertex="1" parent="1">
          <mxGeometry x="400" y="60" width="230" height="80" as="geometry" />
        </mxCell>
        <mxCell id="hH72TNsfT_wBY8C2byF3-2" value="&lt;span style=&quot;font-size: 16px;&quot;&gt;通信资源将如何分配&lt;/span&gt;" style="rounded=1;whiteSpace=wrap;html=1;fillColor=#dae8fc;strokeColor=#6c8ebf;fontSize=16;" vertex="1" parent="1">
          <mxGeometry x="400" y="180" width="170" height="80" as="geometry" />
        </mxCell>
        <mxCell id="hH72TNsfT_wBY8C2byF3-3" value="&lt;span style=&quot;font-size: 16px;&quot;&gt;以移动终端为主要优化目标的情况下降低整体系统能耗&lt;/span&gt;" style="rounded=1;whiteSpace=wrap;html=1;fillColor=#dae8fc;strokeColor=#6c8ebf;fontSize=16;" vertex="1" parent="1">
          <mxGeometry x="400" y="300" width="390" height="100" as="geometry" />
        </mxCell>
        <mxCell id="hH72TNsfT_wBY8C2byF3-9" style="edgeStyle=orthogonalEdgeStyle;rounded=0;orthogonalLoop=1;jettySize=auto;html=1;entryX=0;entryY=0.5;entryDx=0;entryDy=0;fontSize=16;curved=1;" edge="1" parent="1" source="hH72TNsfT_wBY8C2byF3-4" target="hH72TNsfT_wBY8C2byF3-5">
          <mxGeometry relative="1" as="geometry" />
        </mxCell>
        <mxCell id="hH72TNsfT_wBY8C2byF3-10" style="edgeStyle=orthogonalEdgeStyle;curved=1;rounded=0;orthogonalLoop=1;jettySize=auto;html=1;entryX=0;entryY=0.5;entryDx=0;entryDy=0;fontSize=16;" edge="1" parent="1" source="hH72TNsfT_wBY8C2byF3-4" target="hH72TNsfT_wBY8C2byF3-1">
          <mxGeometry relative="1" as="geometry" />
        </mxCell>
        <mxCell id="hH72TNsfT_wBY8C2byF3-11" style="edgeStyle=orthogonalEdgeStyle;curved=1;rounded=0;orthogonalLoop=1;jettySize=auto;html=1;fontSize=16;" edge="1" parent="1" source="hH72TNsfT_wBY8C2byF3-4" target="hH72TNsfT_wBY8C2byF3-2">
          <mxGeometry relative="1" as="geometry" />
        </mxCell>
        <mxCell id="hH72TNsfT_wBY8C2byF3-12" style="edgeStyle=orthogonalEdgeStyle;curved=1;rounded=0;orthogonalLoop=1;jettySize=auto;html=1;entryX=0;entryY=0.5;entryDx=0;entryDy=0;fontSize=16;" edge="1" parent="1" source="hH72TNsfT_wBY8C2byF3-4" target="hH72TNsfT_wBY8C2byF3-3">
          <mxGeometry relative="1" as="geometry" />
        </mxCell>
        <mxCell id="hH72TNsfT_wBY8C2byF3-15" style="edgeStyle=orthogonalEdgeStyle;curved=1;rounded=0;orthogonalLoop=1;jettySize=auto;html=1;entryX=0;entryY=0.5;entryDx=0;entryDy=0;fontSize=16;" edge="1" parent="1" source="hH72TNsfT_wBY8C2byF3-4" target="hH72TNsfT_wBY8C2byF3-14">
          <mxGeometry relative="1" as="geometry" />
        </mxCell>
        <mxCell id="hH72TNsfT_wBY8C2byF3-16" style="edgeStyle=orthogonalEdgeStyle;curved=1;rounded=0;orthogonalLoop=1;jettySize=auto;html=1;entryX=0;entryY=0.5;entryDx=0;entryDy=0;fontSize=16;" edge="1" parent="1" source="hH72TNsfT_wBY8C2byF3-4" target="hH72TNsfT_wBY8C2byF3-13">
          <mxGeometry relative="1" as="geometry" />
        </mxCell>
        <mxCell id="hH72TNsfT_wBY8C2byF3-4" value="&lt;font style=&quot;font-size: 19px&quot;&gt;主要解决问题&lt;/font&gt;" style="ellipse;whiteSpace=wrap;html=1;fillColor=#f8cecc;strokeColor=#b85450;" vertex="1" parent="1">
          <mxGeometry x="160" y="120" width="120" height="80" as="geometry" />
        </mxCell>
        <mxCell id="hH72TNsfT_wBY8C2byF3-5" value="&lt;span style=&quot;font-size: 16px&quot;&gt;提出一种无线密集网络融合的一个可行方案&lt;/span&gt;" style="rounded=1;whiteSpace=wrap;html=1;fillColor=#dae8fc;strokeColor=#6c8ebf;fontSize=16;" vertex="1" parent="1">
          <mxGeometry x="400" y="-60" width="310" height="80" as="geometry" />
        </mxCell>
        <mxCell id="hH72TNsfT_wBY8C2byF3-13" value="优化整体系统通信的时延" style="rounded=1;whiteSpace=wrap;html=1;fillColor=#dae8fc;strokeColor=#6c8ebf;fontSize=16;" vertex="1" parent="1">
          <mxGeometry x="400" y="-180" width="180" height="80" as="geometry" />
        </mxCell>
        <mxCell id="hH72TNsfT_wBY8C2byF3-14" value="使用什么算法进行高效求解多目标优化问题" style="rounded=1;whiteSpace=wrap;html=1;fillColor=#dae8fc;strokeColor=#6c8ebf;fontSize=16;" vertex="1" parent="1">
          <mxGeometry x="400" y="440" width="320" height="90" as="geometry" />
        </mxCell>
      </root>
    </mxGraphModel>
  </diagram>
</mxfile>
